<svg width="201" height="37" viewBox="0 0 201 37" fill="none" xmlns="http://www.w3.org/2000/svg">
<path d="M0.72 27L8.892 1.08H15.246L23.418 27H18.954L11.538 3.744H12.51L5.184 27H0.72ZM5.274 21.384V17.334H18.882V21.384H5.274ZM33.9623 27.558C32.5223 27.558 31.3343 27.318 30.3983 26.838C29.4623 26.358 28.7183 25.746 28.1663 25.002C27.6143 24.258 27.2063 23.466 26.9423 22.626C26.6783 21.786 26.5043 20.994 26.4203 20.25C26.3483 19.494 26.3123 18.882 26.3123 18.414V7.56H30.7043V16.92C30.7043 17.52 30.7463 18.198 30.8303 18.954C30.9143 19.698 31.1063 20.418 31.4063 21.114C31.7183 21.798 32.1743 22.362 32.7743 22.806C33.3863 23.25 34.2083 23.472 35.2403 23.472C35.7923 23.472 36.3383 23.382 36.8783 23.202C37.4183 23.022 37.9043 22.716 38.3363 22.284C38.7803 21.84 39.1343 21.234 39.3983 20.466C39.6623 19.698 39.7943 18.726 39.7943 17.55L42.3683 18.648C42.3683 20.304 42.0443 21.804 41.3963 23.148C40.7603 24.492 39.8183 25.566 38.5703 26.37C37.3223 27.162 35.7863 27.558 33.9623 27.558ZM40.3163 27V20.97H39.7943V7.56H44.1503V27H40.3163ZM60.6015 27C59.3175 27.24 58.0575 27.342 56.8215 27.306C55.5975 27.282 54.4995 27.06 53.5275 26.64C52.5555 26.208 51.8175 25.53 51.3135 24.606C50.8695 23.766 50.6355 22.908 50.6115 22.032C50.5875 21.156 50.5755 20.166 50.5755 19.062V2.16H54.8955V18.81C54.8955 19.59 54.9015 20.274 54.9135 20.862C54.9375 21.45 55.0635 21.93 55.2915 22.302C55.7235 23.022 56.4135 23.424 57.3615 23.508C58.3095 23.592 59.3895 23.544 60.6015 23.364V27ZM47.0475 10.962V7.56H60.6015V10.962H47.0475ZM72.3833 27.54C70.4393 27.54 68.7413 27.102 67.2893 26.226C65.8373 25.35 64.7093 24.144 63.9053 22.608C63.1133 21.06 62.7173 19.284 62.7173 17.28C62.7173 15.24 63.1253 13.452 63.9413 11.916C64.7573 10.38 65.8913 9.18 67.3433 8.316C68.7953 7.452 70.4753 7.02 72.3833 7.02C74.3393 7.02 76.0433 7.458 77.4953 8.334C78.9473 9.21 80.0753 10.422 80.8793 11.97C81.6833 13.506 82.0853 15.276 82.0853 17.28C82.0853 19.296 81.6773 21.078 80.8613 22.626C80.0573 24.162 78.9293 25.368 77.4773 26.244C76.0253 27.108 74.3273 27.54 72.3833 27.54ZM72.3833 23.472C74.1113 23.472 75.3953 22.896 76.2353 21.744C77.0753 20.592 77.4953 19.104 77.4953 17.28C77.4953 15.396 77.0693 13.896 76.2173 12.78C75.3653 11.652 74.0873 11.088 72.3833 11.088C71.2193 11.088 70.2593 11.352 69.5033 11.88C68.7593 12.396 68.2073 13.122 67.8473 14.058C67.4873 14.982 67.3073 16.056 67.3073 17.28C67.3073 19.164 67.7333 20.67 68.5853 21.798C69.4493 22.914 70.7153 23.472 72.3833 23.472Z" fill="black"/>
<path d="M92.2793 27V5.148H83.8913V1.08H105.005V5.148H96.6173V27H92.2793ZM113.38 27.558C111.94 27.558 110.752 27.318 109.816 26.838C108.88 26.358 108.136 25.746 107.584 25.002C107.032 24.258 106.624 23.466 106.36 22.626C106.096 21.786 105.922 20.994 105.838 20.25C105.766 19.494 105.73 18.882 105.73 18.414V7.56H110.122V16.92C110.122 17.52 110.164 18.198 110.248 18.954C110.332 19.698 110.524 20.418 110.824 21.114C111.136 21.798 111.592 22.362 112.192 22.806C112.804 23.25 113.626 23.472 114.658 23.472C115.21 23.472 115.756 23.382 116.296 23.202C116.836 23.022 117.322 22.716 117.754 22.284C118.198 21.84 118.552 21.234 118.816 20.466C119.08 19.698 119.212 18.726 119.212 17.55L121.786 18.648C121.786 20.304 121.462 21.804 120.814 23.148C120.178 24.492 119.236 25.566 117.988 26.37C116.74 27.162 115.204 27.558 113.38 27.558ZM119.734 27V20.97H119.212V7.56H123.568V27H119.734ZM142.071 27V17.64C142.071 17.028 142.029 16.35 141.945 15.606C141.861 14.862 141.663 14.148 141.351 13.464C141.051 12.768 140.595 12.198 139.983 11.754C139.383 11.31 138.567 11.088 137.535 11.088C136.983 11.088 136.437 11.178 135.897 11.358C135.357 11.538 134.865 11.85 134.421 12.294C133.989 12.726 133.641 13.326 133.377 14.094C133.113 14.85 132.981 15.822 132.981 17.01L130.407 15.912C130.407 14.256 130.725 12.756 131.361 11.412C132.009 10.068 132.957 9 134.205 8.208C135.453 7.404 136.989 7.002 138.813 7.002C140.253 7.002 141.441 7.242 142.377 7.722C143.313 8.202 144.057 8.814 144.609 9.558C145.161 10.302 145.569 11.094 145.833 11.934C146.097 12.774 146.265 13.572 146.337 14.328C146.421 15.072 146.463 15.678 146.463 16.146V27H142.071ZM128.589 27V7.56H132.459V13.59H132.981V27H128.589ZM151.521 4.608V0.629999H155.859V4.608H151.521ZM151.521 27V7.56H155.859V27H151.521ZM174.696 27V17.64C174.696 17.028 174.654 16.35 174.57 15.606C174.486 14.862 174.288 14.148 173.976 13.464C173.676 12.768 173.22 12.198 172.608 11.754C172.008 11.31 171.192 11.088 170.16 11.088C169.608 11.088 169.062 11.178 168.522 11.358C167.982 11.538 167.49 11.85 167.046 12.294C166.614 12.726 166.266 13.326 166.002 14.094C165.738 14.85 165.606 15.822 165.606 17.01L163.032 15.912C163.032 14.256 163.35 12.756 163.986 11.412C164.634 10.068 165.582 9 166.83 8.208C168.078 7.404 169.614 7.002 171.438 7.002C172.878 7.002 174.066 7.242 175.002 7.722C175.938 8.202 176.682 8.814 177.234 9.558C177.786 10.302 178.194 11.094 178.458 11.934C178.722 12.774 178.89 13.572 178.962 14.328C179.046 15.072 179.088 15.678 179.088 16.146V27H174.696ZM161.214 27V7.56H165.084V13.59H165.606V27H161.214ZM191.958 36.18C190.878 36.18 189.84 36.012 188.844 35.676C187.86 35.34 186.972 34.854 186.18 34.218C185.388 33.594 184.74 32.838 184.236 31.95L188.232 29.97C188.604 30.678 189.126 31.2 189.798 31.536C190.482 31.884 191.208 32.058 191.976 32.058C192.876 32.058 193.68 31.896 194.388 31.572C195.096 31.26 195.642 30.792 196.026 30.168C196.422 29.556 196.608 28.788 196.584 27.864V22.338H197.124V7.56H200.922V27.936C200.922 28.428 200.898 28.896 200.85 29.34C200.814 29.796 200.748 30.24 200.652 30.672C200.364 31.932 199.812 32.964 198.996 33.768C198.18 34.584 197.166 35.19 195.954 35.586C194.754 35.982 193.422 36.18 191.958 36.18ZM191.58 27.54C189.792 27.54 188.232 27.09 186.9 26.19C185.568 25.29 184.536 24.066 183.804 22.518C183.072 20.97 182.706 19.224 182.706 17.28C182.706 15.312 183.072 13.56 183.804 12.024C184.548 10.476 185.598 9.258 186.954 8.37C188.31 7.47 189.906 7.02 191.742 7.02C193.59 7.02 195.138 7.47 196.386 8.37C197.646 9.258 198.6 10.476 199.248 12.024C199.896 13.572 200.22 15.324 200.22 17.28C200.22 19.212 199.896 20.958 199.248 22.518C198.6 24.066 197.634 25.29 196.35 26.19C195.066 27.09 193.476 27.54 191.58 27.54ZM192.246 23.652C193.41 23.652 194.346 23.388 195.054 22.86C195.774 22.32 196.296 21.57 196.62 20.61C196.956 19.65 197.124 18.54 197.124 17.28C197.124 16.008 196.956 14.898 196.62 13.95C196.296 12.99 195.786 12.246 195.09 11.718C194.394 11.178 193.494 10.908 192.39 10.908C191.226 10.908 190.266 11.196 189.51 11.772C188.754 12.336 188.196 13.104 187.836 14.076C187.476 15.036 187.296 16.104 187.296 17.28C187.296 18.468 187.47 19.548 187.818 20.52C188.178 21.48 188.724 22.242 189.456 22.806C190.188 23.37 191.118 23.652 192.246 23.652Z" fill="#48DA82"/>
</svg>
