<svg width="24" height="24" viewBox="0 0 24 24" fill="none" xmlns="http://www.w3.org/2000/svg">
<path d="M7.28916 4.90749C10.4238 4.63501 13.5762 4.635 16.7108 4.90749L18.2211 5.03877C19.2264 5.12617 20.0875 5.72584 20.5337 6.58362C20.5907 6.69335 20.5479 6.82621 20.4428 6.89132L14.1768 10.7703C12.833 11.6022 11.1384 11.6196 9.7777 10.8156L3.46987 7.08821C3.36796 7.02799 3.32118 6.90403 3.36711 6.79493C3.77527 5.82536 4.6929 5.13318 5.77893 5.03878L7.28916 4.90749Z" fill="#48DA82"/>
<path d="M3.362 8.76673C3.20603 8.67457 3.00703 8.77375 2.98885 8.95399C2.73512 11.4696 2.79653 14.009 3.17308 16.5131C3.3716 17.8332 4.44901 18.8453 5.77895 18.9609L7.28918 19.0922C10.4238 19.3647 13.5762 19.3647 16.7108 19.0922L18.2211 18.9609C19.551 18.8453 20.6284 17.8332 20.8269 16.5131C21.2145 13.9361 21.2682 11.3215 20.9882 8.73413C20.9685 8.55261 20.7662 8.45526 20.6109 8.55136L14.9664 12.0456C13.1482 13.1711 10.8556 13.1947 9.01462 12.1069L3.362 8.76673Z" fill="#48DA82"/>
</svg>
