<svg width="20" height="17" viewBox="0 0 20 17" fill="none" xmlns="http://www.w3.org/2000/svg">
<path fill-rule="evenodd" clip-rule="evenodd" d="M0.520813 5.86562C0.520813 2.94008 3.08738 0.6875 6.09998 0.6875C7.6529 0.6875 9.01935 1.41565 9.99998 2.35782C10.9806 1.41565 12.347 0.6875 13.9 0.6875C16.9126 0.6875 19.4791 2.94008 19.4791 5.86562C19.4791 7.86968 18.6245 9.63193 17.4405 11.1216C16.2585 12.6088 14.7125 13.8709 13.2321 14.8965C12.6666 15.2882 12.0946 15.6495 11.5711 15.9161C11.0795 16.1665 10.5142 16.3958 9.99998 16.3958C9.48572 16.3958 8.92044 16.1665 8.42882 15.9161C7.90535 15.6495 7.33331 15.2882 6.76789 14.8965C5.28753 13.8709 3.74142 12.6088 2.55945 11.1216C1.37543 9.63193 0.520813 7.86968 0.520813 5.86562ZM6.09998 2.3125C3.84746 2.3125 2.14581 3.96903 2.14581 5.86562C2.14581 7.38608 2.79125 8.80167 3.83158 10.1106C4.87395 11.422 6.27648 12.5791 7.69328 13.5607C8.22938 13.9321 8.73432 14.2481 9.16635 14.4682C9.63013 14.7043 9.8989 14.7708 9.99998 14.7708C10.1011 14.7708 10.3698 14.7043 10.8336 14.4682C11.2656 14.2481 11.7706 13.9321 12.3067 13.5607C13.7235 12.5791 15.126 11.422 16.1684 10.1106C17.2087 8.80167 17.8541 7.38608 17.8541 5.86562C17.8541 3.96903 16.1524 2.3125 13.9 2.3125C12.6063 2.3125 11.3983 3.08537 10.6441 4.06633C10.4903 4.26636 10.2523 4.38357 9.99998 4.38357C9.74767 4.38357 9.50966 4.26636 9.35583 4.06633C8.60161 3.08537 7.39364 2.3125 6.09998 2.3125Z" fill="#252B2F"/>
</svg>
