<svg width="24" height="24" viewBox="0 0 24 24" fill="none" xmlns="http://www.w3.org/2000/svg">
<path d="M16 7C16 6.44772 16.4477 6 17 6C17.5523 6 18 6.44772 18 7C18 7.55228 17.5523 8 17 8C16.4477 8 16 7.55228 16 7Z" fill="#48DA82"/>
<path fill-rule="evenodd" clip-rule="evenodd" d="M12 7.25C9.37665 7.25 7.25 9.37665 7.25 12C7.25 14.6234 9.37665 16.75 12 16.75C14.6234 16.75 16.75 14.6234 16.75 12C16.75 9.37665 14.6234 7.25 12 7.25ZM8.75 12C8.75 10.2051 10.2051 8.75 12 8.75C13.7949 8.75 15.25 10.2051 15.25 12C15.25 13.7949 13.7949 15.25 12 15.25C10.2051 15.25 8.75 13.7949 8.75 12Z" fill="#48DA82"/>
<path fill-rule="evenodd" clip-rule="evenodd" d="M17.2584 2.83258C13.7918 2.44513 10.2084 2.44513 6.74183 2.83258C4.72977 3.05745 3.10544 4.64246 2.86889 6.66499C2.45435 10.2093 2.45435 13.7899 2.86889 17.3342C3.10544 19.3567 4.72977 20.9417 6.74183 21.1666C10.2084 21.554 13.7918 21.554 17.2584 21.1666C19.2704 20.9417 20.8947 19.3567 21.1313 17.3342C21.5458 13.7899 21.5458 10.2093 21.1313 6.66499C20.8947 4.64246 19.2704 3.05745 17.2584 2.83258ZM6.90844 4.32329C10.2643 3.94823 13.7359 3.94823 17.0917 4.32329C18.4219 4.47195 19.4873 5.52157 19.6415 6.83924C20.0425 10.2678 20.0425 13.7314 19.6415 17.1599C19.4873 18.4776 18.4219 19.5272 17.0917 19.6759C13.7359 20.0509 10.2643 20.0509 6.90844 19.6759C5.57833 19.5272 4.51284 18.4776 4.35873 17.1599C3.95773 13.7314 3.95773 10.2678 4.35873 6.83924C4.51284 5.52157 5.57833 4.47195 6.90844 4.32329Z" fill="#48DA82"/>
</svg>
