<svg width="20" height="16" viewBox="0 0 20 16" fill="none" xmlns="http://www.w3.org/2000/svg">
<path d="M18.1477 3.25H4.33514L3.15497 1.1346C3.0225 0.89715 2.7719 0.75 2.5 0.75H1C0.58579 0.75 0.25 1.08579 0.25 1.5C0.25 1.91421 0.58579 2.25 1 2.25H2.0596L3.22429 4.33765L5.91037 10.2809L5.91312 10.2869L6.14971 10.8104L3.45287 13.687C3.25895 13.8939 3.19825 14.1924 3.29599 14.4585C3.39372 14.7247 3.63317 14.913 3.91486 14.9452L6.37299 15.2261C9.4477 15.5775 12.5524 15.5775 15.627 15.2261L18.0852 14.9452C18.4967 14.8981 18.7922 14.5264 18.7452 14.1148C18.6981 13.7033 18.3264 13.4078 17.9149 13.4549L15.4567 13.7358C12.4952 14.0742 9.5048 14.0742 6.54331 13.7358L5.56779 13.6243L7.54717 11.513C7.56632 11.4925 7.5841 11.4713 7.60052 11.4494L8.35334 11.5474C9.4083 11.6847 10.4746 11.7116 11.5351 11.6277C14.0086 11.4321 16.301 10.2551 17.9015 8.3591L18.4795 7.67425C18.499 7.65125 18.517 7.62711 18.5335 7.60194L19.6109 5.96009C20.3745 4.79633 19.5397 3.25 18.1477 3.25Z" fill="white"/>
</svg>
