<svg width="24" height="24" viewBox="0 0 24 24" fill="none" xmlns="http://www.w3.org/2000/svg">
<path d="M11.25 19C11.25 18.5858 11.5858 18.25 12 18.25H18C18.1381 18.25 18.25 18.1381 18.25 18V6C18.25 5.86193 18.1381 5.75 18 5.75H12C11.5858 5.75 11.25 5.41421 11.25 5C11.25 4.58579 11.5858 4.25 12 4.25H18C18.9665 4.25 19.75 5.0335 19.75 6V18C19.75 18.9665 18.9665 19.75 18 19.75H12C11.5858 19.75 11.25 19.4142 11.25 19Z" fill="#333333"/>
<path d="M3.5 13.1151C3.5 13.6674 3.94771 14.1151 4.5 14.1151H9.35599C9.37892 14.4705 9.40762 14.8257 9.4421 15.1804L9.47176 15.4856C9.51999 15.9819 10.047 16.279 10.4966 16.0636C12.3245 15.1875 13.9793 13.9888 15.3813 12.5249L15.4113 12.4936C15.6784 12.2147 15.6784 11.775 15.4113 11.4961L15.3813 11.4648C13.9793 10.0009 12.3245 8.80215 10.4966 7.92614C10.047 7.71066 9.51999 8.00785 9.47176 8.50409L9.4421 8.80929C9.40762 9.16402 9.37892 9.51917 9.35599 9.87459L4.5 9.8746C3.94772 9.8746 3.5 10.3223 3.5 10.8746V13.1151Z" fill="#333333"/>
</svg>
