<svg width="17" height="17" viewBox="0 0 17 17" fill="none" xmlns="http://www.w3.org/2000/svg">
<path d="M1.00023 6.86077C2.91663 11.0346 6.32663 14.3531 10.5661 16.1521L11.2457 16.4549C12.8006 17.1477 14.6283 16.6214 15.5766 15.2079L16.4647 13.8842C16.7535 13.4538 16.6656 12.8741 16.2622 12.5487L13.2503 10.1189C12.808 9.76204 12.1575 9.84524 11.819 10.3018L10.8873 11.5591C8.49653 10.3797 6.55543 8.43874 5.37613 6.04792L6.63333 5.1162C7.09003 4.77778 7.17313 4.12726 6.81623 3.68488L4.38641 0.672942C4.06106 0.269662 3.48156 0.181692 3.05119 0.470262L1.71835 1.36396C0.296008 2.31766 -0.227372 4.16051 0.481358 5.71946L0.999448 6.85908L1.00023 6.86077Z" fill="#48DA82"/>
</svg>
