<svg width="20" height="20" viewBox="0 0 20 20" fill="none" xmlns="http://www.w3.org/2000/svg">
<path fill-rule="evenodd" clip-rule="evenodd" d="M12.5838 13.7327C9.71269 16.0323 5.50997 15.8513 2.84845 13.1897C-0.00726247 10.3341 -0.00726247 5.70404 2.84845 2.84833C5.70416 -0.00738448 10.3342 -0.00738448 13.1899 2.84833C15.8514 5.50984 16.0324 9.71254 13.7328 12.5837L19.3182 18.1689C19.6355 18.4862 19.6355 19.0007 19.3182 19.318C19.0009 19.6353 18.4864 19.6353 18.1691 19.318L12.5838 13.7327ZM3.9975 12.0407C1.77639 9.81958 1.77639 6.21848 3.9975 3.99737C6.21861 1.77627 9.81972 1.77627 12.0409 3.99737C14.2603 6.21685 14.2619 9.81427 12.0458 12.0359C12.0441 12.0375 12.0425 12.039 12.0408 12.0407C12.0391 12.0424 12.0375 12.044 12.036 12.0456C9.81441 14.2618 6.21698 14.2602 3.9975 12.0407Z" fill="#333333"/>
<path fill-rule="evenodd" clip-rule="evenodd" d="M12.5838 13.7327C9.71269 16.0323 5.50997 15.8513 2.84845 13.1897C-0.00726247 10.3341 -0.00726247 5.70404 2.84845 2.84833C5.70416 -0.00738448 10.3342 -0.00738448 13.1899 2.84833C15.8514 5.50984 16.0324 9.71254 13.7328 12.5837L19.3182 18.1689C19.6355 18.4862 19.6355 19.0007 19.3182 19.318C19.0009 19.6353 18.4864 19.6353 18.1691 19.318L12.5838 13.7327ZM3.9975 12.0407C1.77639 9.81958 1.77639 6.21848 3.9975 3.99737C6.21861 1.77627 9.81972 1.77627 12.0409 3.99737C14.2603 6.21685 14.2619 9.81427 12.0458 12.0359C12.0441 12.0375 12.0425 12.039 12.0408 12.0407C12.0391 12.0424 12.0375 12.044 12.036 12.0456C9.81441 14.2618 6.21698 14.2602 3.9975 12.0407Z" fill="#333333"/>
</svg>
