<svg width="27" height="26" viewBox="0 0 27 26" fill="none" xmlns="http://www.w3.org/2000/svg">
<path fill-rule="evenodd" clip-rule="evenodd" d="M14.646 9.47917H4.513C4.06427 9.47917 3.7005 9.11539 3.7005 8.66667C3.7005 8.21794 4.06427 7.85417 4.513 7.85417H14.646C14.9997 6.60373 16.1493 5.6875 17.513 5.6875C18.8767 5.6875 20.0263 6.60373 20.38 7.85417H21.8463C22.295 7.85417 22.6588 8.21794 22.6588 8.66667C22.6588 9.11539 22.295 9.47917 21.8463 9.47917H20.38C20.0263 10.7296 18.8767 11.6458 17.513 11.6458C16.1493 11.6458 14.9997 10.7296 14.646 9.47917ZM16.1588 8.66667C16.1588 7.91878 16.7651 7.3125 17.513 7.3125C18.2609 7.3125 18.8672 7.91878 18.8672 8.66667C18.8672 9.41456 18.2609 10.0208 17.513 10.0208C16.7651 10.0208 16.1588 9.41456 16.1588 8.66667Z" fill="#252B2F"/>
<path fill-rule="evenodd" clip-rule="evenodd" d="M11.7134 18.1457H21.8463C22.295 18.1457 22.6588 17.7819 22.6588 17.3332C22.6588 16.8845 22.295 16.5207 21.8463 16.5207H11.7134C11.3597 15.2702 10.21 14.354 8.84633 14.354C7.48266 14.354 6.33298 15.2702 5.97931 16.5207H4.513C4.06427 16.5207 3.7005 16.8845 3.7005 17.3332C3.7005 17.7819 4.06427 18.1457 4.513 18.1457H5.97931C6.33298 19.3962 7.48266 20.3123 8.84633 20.3123C10.21 20.3123 11.3597 19.3962 11.7134 18.1457ZM7.49217 17.3332C7.49217 16.5852 8.09844 15.979 8.84633 15.979C9.59422 15.979 10.2005 16.5852 10.2005 17.3332C10.2005 18.0811 9.59422 18.6873 8.84633 18.6873C8.09844 18.6873 7.49217 18.0811 7.49217 17.3332Z" fill="#252B2F"/>
</svg>
