<svg width="16" height="16" viewBox="0 0 16 16" fill="none" xmlns="http://www.w3.org/2000/svg">
<path d="M8.64866 1.18706C8.35968 0.688948 7.64028 0.688948 7.35131 1.18706L5.31574 4.69504C5.17296 4.9411 4.92618 5.10903 4.64488 5.15151L0.830142 5.72768C0.189432 5.82445 -0.0353135 6.6334 0.463669 7.0468L3.30549 9.4012C3.56854 9.61915 3.69223 9.96295 3.62833 10.2985L2.88495 14.2024C2.76744 14.8195 3.41528 15.299 3.97114 15.0063L7.56318 13.1149C7.83656 12.971 8.16333 12.971 8.43678 13.1149L12.0288 15.0063C12.5847 15.299 13.2325 14.8195 13.115 14.2024L12.3717 10.2985C12.3078 9.96295 12.4314 9.61915 12.6945 9.4012L15.5363 7.0468C16.0353 6.6334 15.8106 5.82445 15.1698 5.72768L11.3551 5.15151C11.0738 5.10903 10.827 4.9411 10.6842 4.69504L8.64866 1.18706Z" fill="#48DA82"/>
</svg>
