<svg width="25" height="26" viewBox="0 0 25 26" fill="none" xmlns="http://www.w3.org/2000/svg">
<path d="M12.169 20.0689C15.8447 20.0689 18.8245 17.0891 18.8245 13.4134C18.8245 9.73761 15.8447 6.75781 12.169 6.75781C8.49322 6.75781 5.51343 9.73761 5.51343 13.4134C5.51343 17.0891 8.49322 20.0689 12.169 20.0689Z" fill="#FFC107"/>
<path d="M12.1691 5.47607C12.7953 5.47607 13.303 5.1376 13.303 4.72011V1.69639C13.303 1.2789 12.7953 0.94043 12.1691 0.94043C11.5428 0.94043 11.0352 1.2789 11.0352 1.69639V4.72018C11.0353 5.1376 11.5428 5.47607 12.1691 5.47607Z" fill="#48DA82"/>
<path d="M12.1691 21.4048C12.7953 21.4048 13.303 21.7433 13.303 22.1608V25.1845C13.303 25.602 12.7953 25.9404 12.1691 25.9404C11.5428 25.9404 11.0352 25.602 11.0352 25.1845V22.1607C11.0353 21.7433 11.5428 21.4048 12.1691 21.4048Z" fill="#48DA82"/>
<path d="M16.5527 6.56915C17.095 6.88226 17.7039 6.84298 17.9127 6.48142L19.4245 3.86281C19.6333 3.50125 19.3628 2.95428 18.8205 2.64117C18.2782 2.32806 17.6693 2.36734 17.4605 2.7289L15.9486 5.34758C15.74 5.70913 16.0104 6.25604 16.5527 6.56915Z" fill="#48DA82"/>
<path d="M7.78534 6.56915C7.24302 6.88226 6.63411 6.84298 6.42536 6.48142L4.9135 3.86281C4.70476 3.50125 4.9752 2.95428 5.51752 2.64117C6.05984 2.32806 6.66875 2.36734 6.87749 2.7289L8.38939 5.34758C8.598 5.70913 8.32766 6.25604 7.78534 6.56915Z" fill="#48DA82"/>
<path d="M16.5527 20.3117C17.095 19.9986 17.7039 20.0379 17.9127 20.3994L19.4245 23.018C19.6333 23.3796 19.3628 23.9266 18.8205 24.2397C18.2782 24.5528 17.6693 24.5135 17.4605 24.152L15.9486 21.5333C15.74 21.1717 16.0104 20.6248 16.5527 20.3117Z" fill="#48DA82"/>
<path d="M7.78534 20.3117C7.24302 19.9986 6.63411 20.0379 6.42536 20.3994L4.9135 23.018C4.70476 23.3796 4.9752 23.9266 5.51752 24.2397C6.05984 24.5528 6.66875 24.5135 6.87749 24.152L8.38939 21.5333C8.598 21.1717 8.32766 20.6248 7.78534 20.3117Z" fill="#48DA82"/>
<path d="M19.0132 9.64239C19.3264 10.1847 19.8733 10.4552 20.2349 10.2464L22.8535 8.73455C23.2151 8.5258 23.2543 7.91689 22.9412 7.37457C22.6281 6.83225 22.0811 6.56181 21.7196 6.77056L19.1009 8.28245C18.7395 8.49125 18.7001 9.10007 19.0132 9.64239Z" fill="#48DA82"/>
<path d="M5.32477 9.64239C5.01166 10.1847 4.46469 10.4552 4.10313 10.2464L1.48452 8.73455C1.12296 8.5258 1.08368 7.91689 1.39679 7.37457C1.7099 6.83225 2.25687 6.56181 2.61843 6.77056L5.2371 8.28245C5.59855 8.49125 5.63788 9.10007 5.32477 9.64239Z" fill="#48DA82"/>
<path d="M19.0132 17.2385C19.3264 16.6961 19.8733 16.4257 20.2349 16.6345L22.8535 18.1463C23.2151 18.3551 23.2543 18.964 22.9412 19.5063C22.6281 20.0486 22.0811 20.319 21.7196 20.1103L19.1009 18.5984C18.7395 18.3896 18.7001 17.7808 19.0132 17.2385Z" fill="#48DA82"/>
<path d="M5.32477 17.2385C5.01166 16.6961 4.46469 16.4257 4.10313 16.6345L1.48452 18.1463C1.12296 18.3551 1.08368 18.964 1.39679 19.5063C1.7099 20.0486 2.25687 20.319 2.61843 20.1103L5.2371 18.5984C5.59855 18.3896 5.63788 17.7808 5.32477 17.2385Z" fill="#48DA82"/>
<path d="M19.8025 13.7892C19.8025 14.4154 20.141 14.9231 20.5585 14.9231L23.5822 14.9231C23.9997 14.9231 24.3381 14.4154 24.3381 13.7892C24.3381 13.163 23.9997 12.6553 23.5822 12.6553L20.5584 12.6553C20.141 12.6554 19.8025 13.163 19.8025 13.7892Z" fill="#48DA82"/>
<path d="M4.53564 13.7892C4.53564 14.4154 4.19717 14.9231 3.77968 14.9231L0.755964 14.9231C0.338472 14.9231 7.69376e-08 14.4154 4.95647e-08 13.7892C2.21919e-08 13.163 0.338472 12.6553 0.755963 12.6553L3.77975 12.6553C4.19717 12.6554 4.53564 13.163 4.53564 13.7892Z" fill="#48DA82"/>
</svg>
